<svg width="20" height="16" viewBox="0 0 20 16" fill="none" xmlns="http://www.w3.org/2000/svg">
<path d="M20 6.57149V7.14291C20 7.6163 19.6269 8.00005 19.1667 8.00005H18.8889L17.9822 14.5282C17.8649 15.3727 17.1617 16 16.3323 16H3.66771C2.8383 16 2.1351 15.3727 2.01778 14.5282L1.11111 8.00005H0.833333C0.37309 8.00005 0 7.6163 0 7.14291V6.57149C0 6.0981 0.37309 5.71435 0.833333 5.71435H3.17156L6.8792 0.470777C7.24014 -0.0396485 7.935 -0.152541 8.43132 0.218707C8.9276 0.589955 9.03733 1.3047 8.67639 1.81516L5.91934 5.71435H14.0807L11.3236 1.81513C10.9627 1.3047 11.0724 0.589919 11.5687 0.218671C12.0649 -0.152576 12.7599 -0.0397199 13.1208 0.470741L16.8284 5.71435H19.1667C19.6269 5.71435 20 6.0981 20 6.57149ZM10.8333 12.8572V8.85719C10.8333 8.3838 10.4602 8.00005 10 8.00005C9.53976 8.00005 9.16667 8.3838 9.16667 8.85719V12.8572C9.16667 13.3306 9.53976 13.7143 10 13.7143C10.4602 13.7143 10.8333 13.3306 10.8333 12.8572ZM14.7222 12.8572V8.85719C14.7222 8.3838 14.3491 8.00005 13.8889 8.00005C13.4286 8.00005 13.0556 8.3838 13.0556 8.85719V12.8572C13.0556 13.3306 13.4286 13.7143 13.8889 13.7143C14.3491 13.7143 14.7222 13.3306 14.7222 12.8572ZM6.94444 12.8572V8.85719C6.94444 8.3838 6.57135 8.00005 6.11111 8.00005C5.65087 8.00005 5.27778 8.3838 5.27778 8.85719V12.8572C5.27778 13.3306 5.65087 13.7143 6.11111 13.7143C6.57135 13.7143 6.94444 13.3306 6.94444 12.8572Z" fill="#B48856"/>
</svg>
