<svg width="55" height="42" viewBox="0 0 55 42" fill="none" xmlns="http://www.w3.org/2000/svg">
<path d="M18.2715 18.7728L0.116445 39.1676C0.0699316 38.9623 0 38.7638 0 38.539V2.57179C0 2.29883 0.0762695 2.05219 0.145664 1.80436L18.2715 18.7728ZM53.0113 0.0941015C52.8783 0.0643456 52.7509 0 52.6042 0H2.29013C2.1508 0 2.0263 0.0643456 1.88525 0.0941015L27.4475 24.0206L53.0113 0.0941015ZM28.1776 26.6807C27.9677 26.8815 27.708 26.979 27.4475 26.979C27.1876 26.979 26.9273 26.8815 26.7197 26.6807L20.037 20.4269L1.73551 40.9811C1.91791 41.0373 2.09687 41.1108 2.29013 41.1108H52.6042C52.8072 41.1108 52.9838 41.0373 53.1674 40.9811L34.8672 20.4269L28.1776 26.6807ZM36.6302 18.7728L54.7824 39.1654C54.8317 38.9601 54.8925 38.7616 54.8925 38.539V2.57179C54.8925 2.30334 54.8259 2.05219 54.7571 1.80555L36.6302 18.7728Z" fill="#B59571"/>
</svg>
