<svg width="45" height="50" viewBox="0 0 45 50" fill="none" xmlns="http://www.w3.org/2000/svg">
<path d="M12.7759 1.75682C12.7759 1.75682 12.0212 0 10.8686 0C9.73431 0 9.14429 0.520455 8.75093 0.879546C8.35758 1.23864 1.77579 6.61364 1.77579 6.61364C1.77579 6.61364 -0.138378 8.275 0.0079853 11.4C0.13148 14.525 0.746665 18.9727 3.93922 25.1682C7.10891 31.35 15.0423 40.7955 20.0552 44.1159C20.0552 44.1159 24.7 47.6568 29.0223 49.0955C30.2778 49.4886 32.7889 50 33.3743 50C33.9689 50 35.0187 50 36.2239 49.125C37.4497 48.2409 44.3265 42.7455 44.3265 42.7455C44.3265 42.7455 46.0097 41.2341 44.0543 39.4773C42.0898 37.7205 36.1255 33.8136 34.8494 32.7864C33.571 31.7432 31.7506 32.2023 30.9639 32.9091C30.1795 33.6205 28.7776 34.7909 28.6061 34.9386C28.35 35.1341 27.6479 35.7682 26.8612 35.4523C25.8595 35.0591 21.7522 32.8432 17.9444 27.6659C14.1595 22.4932 13.7433 20.8023 13.1784 18.975C13.0826 18.7049 13.0813 18.4105 13.1747 18.1396C13.2681 17.8686 13.4507 17.6369 13.693 17.4818C14.2602 17.0909 16.3481 15.3614 16.3481 15.3614C16.3481 15.3614 17.6997 14.0364 17.1348 12.475C16.57 10.9136 12.7759 1.75682 12.7759 1.75682Z" fill="#B59571"/>
</svg>
